# xmcd CD database file
#
# Track frame offsets:
#	150
#	15289
#	43038
#	66309
#	84719
#	101019
#	122615
#	141784
#	166828
#	190435
#	210429
#	225612
#	246237
#	269138
#
# Disc length: 3841 seconds
#
# Revision: 0
# Processed by: cddbd v1.5.2PL0 Copyright (c) Steve Scherf et al.
# Submitted via: CDex 1.51
#
DISCID=c40eff0e
DTITLE=European Jazz Trio - Autumn In Rome
DYEAR=2015
DGENRE=Jazz
TTITLE0=Don't Stand So Close To Me
TTITLE1=In Between The Heartaches
TTITLE2=Nice Dream
TTITLE3=Pavane de la Belle Au Bois Dormant
TTITLE4=Favela
TTITLE5=Answer Me My Love
TTITLE6=Girl Talk
TTITLE7=Stazione Termini Suite
TTITLE8=Loss Of Love
TTITLE9=How Deep Is Your Love
TTITLE10=Can't Buy Me Love
TTITLE11=Brothers
TTITLE12=Waters Of March
TTITLE13=Send One Your Love
EXTD=YEAR: 2015
EXTT0=
EXTT1=
EXTT2=
EXTT3=
EXTT4=
EXTT5=
EXTT6=
EXTT7=
EXTT8=
EXTT9=
EXTT10=
EXTT11=
EXTT12=
EXTT13=
PLAYORDER=
